---
config:
  class:
    hideEmptyMembersBox: true
  layout: dagre
  theme: neutral
---

classDiagram
direction TB

class GroundWaterBody{
    + euGroundWaterBodyCode : wiseIdentifier
    + aquiferType : AquiferType
    + aquiferProductivity : AquiferProductivity
    + groundWaterBodyTransboundary : YesNo
    + linkSurfaceWaterBody : YesNo
    + linkTerrestrialEcosystem : YesNoUnknown
}

class LinkSurfaceWaterBody{
    + euGroundWaterBodyCode : wiseIdentifier
    + euSurfacedWaterBodyCode : wiseIdentifier
}

class GroundWaterBodyStatus{
    + euGroundWaterBodyCode : wiseIdentifier
    «derived»
    / gwQuantitativeStatusValue 
    / gwChemicalStatusValue 
} 


class GWPressureImpact{
    + euGroundWaterBodyCode : wiseIdentifier
    + gwPressureType : PressureType [0..1]
    + gwImpactType : ImpactType  [0..1]
}

class GWQuantitativeStatus{
    + euGroundWaterBodyCode : wiseIdentifier
    + gwQuantitativeStatusValue : QuantitativeStatus
    + gwQuantitativeAssessmentPeriod : range
    + gwQuantitativeAssessmentConfidence : AssessmentConfidence
}

class GWPollutant{
    + euGroundWaterBodyCode : wiseIdentifier
    + gwPollutantCode : SubstanceCode
    + gwPollutantCausingFailure : YesNoUnknown
    + gwPollutantAssessmentPeriod : range
    + gwPollutantAssessmentConfidence : AssessmentConfidence 

    «trend»
    + gwPollutantUpwardTrend : YesNoUnknown
    + gwPollutantTrendReversal : YesNoUnknownNotApplicable
    + gwPollutantTrendReversalProcess : YesNoUnknownNotApplicable

        «background-level»
    + gwPollutantBackgroundLevelSet : YesNo
    + gwPollutantBackgroundLevelValue : range [0..1] 
    + gwPollutantBackgroundLevelUnit : UnitOfMeasure [0..1] 
}     

GroundWaterBody "0..n" -- "0..n" LinkSurfaceWaterBody : {if linkSurfaceWaterBody is Yes}
GroundWaterBody "1" -- "1" GroundWaterBodyStatus
GroundWaterBodyStatus -- "0..n" GWPressureImpact 
GroundWaterBodyStatus --  GWQuantitativeStatus
GroundWaterBodyStatus -- "0..n" GWPollutant

classDef default fill:white,stroke:#000;
classDef forFixing fill:white,stroke:#f00;