---
config:
  class:
    hideEmptyMembersBox: true
  layout: dagre
  theme: neutral
---
classDiagram
direction TB

class LinkSurfaceWaterBody{
    + euGroundWaterBodyCode : wiseIdentifier
    + euSurfacedWaterBodyCode : wiseIdentifier
    + linkType : GroundwaterSurfacewaterLink
}

class NaturalBackgroundLevel{
    + euGroundWaterBodyCode : wiseIdentifier
    + parameterCode : ParameterCode
    + naturalBackgroundLevelSet : YesNoNotApplicable
    + parameterValue : range  
    + parameterUnit : UnitOfMeasure
}

class GroundWaterBody{
    + euGroundWaterBodyCode : wiseIdentifier
    + aquiferType : AquiferMediaTypeValue
    + aquiferProductivity : AquiferProductivity
    + aquiferLithology : LithologyValue
    + groundWaterBodyTransboundary : YesNo
    + linkSurfaceWaterBody : YesNo
    + linkTerrestrialEcosystem : YesNoUnknown
}

class GWPressureImpact{
    + euGroundWaterBodyCode : wiseIdentifier
    + gwPressureType : PressureType [0..1]
    + gwImpactType : ImpactType  [0..1]
}

class GWQuantitativeStatus{
    + euGroundWaterBodyCode : wiseIdentifier
    + gwQuantitativeStatusValue : QuantitativeStatus
    + gwQuantitativeAssessmentPeriod : range
    + gwQuantitativeAssessmentConfidence : AssessmentConfidence
    + gwQuantitativeAssessmentMethod : AssessmentMethod [1..n]
    + gwGroupIdentifier : wiseIdentifier [0..n]
}

class GroundWaterBodyStatus{
    
    + euGroundWaterBodyCode : wiseIdentifier
    / gwQuantitativeStatusValue : QuantitativeStatus
    / gwChemicalStatusValue : ChemicalStatus

    + gwQuantitativeReasonsForFailure : ReasonForFailure [1..n]
    + gwChemicalReasonsForFailure : ReasonForFailure [1..n]
} 

class GWPollutant{
    + euGroundWaterBodyCode : wiseIdentifier
    + gwPollutantCode : ParameterCode
    + gwPollutantCausingFailure : YesNoUnknown
    + gwThresholdIdentifier : wiseIdentifier [0..1]

    + gwPollutantAssessmentPeriod : range
    + gwPollutantAssessmentConfidence : AssessmentConfidence 
    + gwPollutantAssessmentMethod : AssessmentMethod [1..n]
    
    + gwGroupIdentifier : wiseIdentifier [0..n]

    + gwPollutantUpwardTrend : YesNoUnknownNotAssessed
    + gwPollutantTrendReversal : YesNoUnknownNotApplicableNotAssessed
    + gwPollutantTrendReversalProcess : YesNoUnknownNotApplicableNotAssessed
}

class GWGrouping{
    + gwGroupIdentifier : wiseIdentifier
    + euGroundWaterBodyCode : wiseIdentifier
}

GroundWaterBody -- GroundWaterBodyStatus    
GroundWaterBodyStatus --  GWQuantitativeStatus
GroundWaterBodyStatus -- "0..n" GWPollutant
GroundWaterBodyStatus -- "0..n" GWPressureImpact

GWQuantitativeStatus "0..n" .. "0..n" GWGrouping : gwGroupIdentifier
GWPollutant "0..n" .. "0..n" GWGrouping : gwGroupIdentifier

LinkSurfaceWaterBody "0..n" -- "1" GroundWaterBody : {linkSurfaceWaterBody = 'Yes'}
NaturalBackgroundLevel "0..n" -- "1" GroundWaterBody

classDef default fill:white,stroke:#000;
classDef forFixing fill:white,stroke:#f00;
