---
config:
  class:
    hideEmptyMembersBox: true
  layout: dagre
  theme: neutral
---
classDiagram
direction TB

class TargetedQuestions{
    + euRBDCode: wiseIdentifier

    + basicMeasuresArt113c: MeasuresChanges
    + basicMeasuresArt113d: MeasuresArt113d
    + basicMeasuresArt113ePermit: MeasureScope
    + basicMeasuresArt113eRegister: MeasureScope
    + basicMeasuresArt113eThreshold: MeasuresArt113eThreshold
    + basicMeasuresArt113eImpoundment: MeasuresArt113eImpoundment
    + basicMeasuresArt113f: MeasuresChanges
    + basicMeasuresArt113gPermit: MeasureScope
    + basicMeasuresArt113gRegister: MeasureScope
    + basicMeasuresArt113gThreshold: MeasuresArt113gThreshold
    + basicMeasuresArt113hRules: MeasuresArt113hRules
    + basicMeasuresArt113iPermit: YesNo 
    + basicMeasuresArt113iRegister: YesNo 
    + basicMeasuresArt113j: MeasuresArt113j
    + basicMeasuresArt113k: YesNo 

    + waterReUseMeasure: YesNo
    + ecologicalFlowDerived: EcologicalFlow
    + ecologicalFlowImplemented: EcologicalFlow
    + climateChange: YesNo
    + climateChangeGuidance: YesNo
    + floodsDirective: YesNo
    + structuralMeasures: YesNo
    + msfdCoOrdination: YesNoNotRelevant
    + msfdAssessment: YesNoNotRelevant
    }

class MeasuresChanges{
    <<enumeration>>
    implementedInPreviousCycleAndNonePlanned
    inPreviousCycleAndNewMeasuresOrChangesPlanned
    noneInPreviousCycleButNewMeasuresOrChangesPlanned
    noneInPreviousCycleAndNonePlanned
    }

class MeasureScope{
    <<enumeration>>
    surfaceWater
    groundwater
    bothSurfaceAndGroundwater
    }

class MeasuresArt113d{
    <<enumeration>>
    yesSafeguardZonesExistAndNoChangesPlanned
    yesSafeguardZonesExistButSignificantChangesPlanned
    noSafeguardZonesExistButArePlannedForThisCycle
    noSafeguardZonesExistAndNoneArePlanned
}

class MeasuresArt113eThreshold{
    <<enumeration>>
    smallAbstractionsExemptedFromControls
    smallAbstractionDoNotRequirePermitButAreRegistered
    noThresholdForAbstractions
    }

class MeasuresArt113eImpoundment{
    <<enumeration>>
    registerAndConcessionAuthorisationOrPermitting
    concessionAuthorisationOrPermitting
    registerOfImpoundments
    none
    }

class MeasuresArt113gThreshold{
    <<enumeration>>
    smallDischargesExemptedFromControls
    smallDischargesDoNotRequirePermitButAreRegistered
    noThresholdForDischarges
    }

class MeasuresArt113hRules{
    <<enumeration>>
    yesSameRulesInTheWholeRBD
    yesButOnlyInNitrateVulnerableZones
    yesButDifferentRulesInDifferentPartsOfTheRBD
    noGeneralBindingRules
    }

class MeasuresArt113j{
    <<enumeration>>
    prohibitionOfAllDirectDischarges
    someDirectDischargesAreAuthorised
    noProhibitionOfDirectDischarges
    }

class EcologicalFlow{
    <<enumeration>>
    yesForAllRelevantWaterBodies
    partlyOngoingWork
    notYetOnlyNextCycle
    noAndNotPlanned
}

TargetedQuestions ..> MeasuresChanges
TargetedQuestions ..> MeasureScope
TargetedQuestions ..> MeasuresArt113d
TargetedQuestions ..> MeasuresArt113eThreshold
TargetedQuestions ..> MeasuresArt113eImpoundment
TargetedQuestions ..> MeasuresArt113gThreshold
TargetedQuestions ..> MeasuresArt113hRules
TargetedQuestions ..> MeasuresArt113j
TargetedQuestions ..> EcologicalFlow

classDef default fill:white,stroke:#000;
classDef forFixing fill:white,stroke:#f00;