---
config:
  class:
    hideEmptyMembersBox: true
  layout: dagre
  theme: neutral
---
classDiagram
direction TB

class ExpenditurePerMeasurePerSector {
+ measureCode: wiseIdentifier
+ expenditureDataAvailable: YesNoNotApplicable
+ institutionalSector: SEA2010SectorCode [0..1]

+ totalCapitalExpenditure3rdCycle: NonNegativeNumberDecimalType [0..1]
+ totalCurrentExpenditure3rdCycle: NonNegativeNumberDecimalType [0..1]

+ totalCapitalExpenditure4thCycle: NonNegativeNumberDecimalType [0..1]
+ totalCurrentExpenditure4thCycle: NonNegativeNumberDecimalType [0..1]

+ millionUnitsOfNationalCurrency: CurrencyCode [0..1]
}

class SEA2010SectorCode{
  <<enumeration>>
  S.1
  S.13
  S.13_S.15
  S.11_S.12
  S.11
  S.11001
  S.11002_S.11003
  S.212
  }

class CurrencyCode{
    <<enumeration>>
    EUR
    CZK
    DKK
    HUF
    PLN
    RON
    SEK
    NOK
    ISK
    }

ExpenditurePerMeasurePerSector ..> SEA2010SectorCode
ExpenditurePerMeasurePerSector ..> CurrencyCode

classDef default fill:white,stroke:#000;
classDef forFixing fill:white,stroke:#f00;