---
config:
  class:
    hideEmptyMembersBox: true
  layout: dagre
  theme: neutral
---
classDiagram
direction TB

class dcMetadata{<<documents>>}
class DocumentReference{<<documents>>}
class Document {<<documents>>}
class Monitoring{<<descriptive>>}
class MonitoringPurpose{<<descriptive>>}
class MonitoringProgrammes{<<descriptive>>}
class MonitoringSite{<<spatial>>}

dcMetadata ..> Document
DocumentReference ..> Document
MonitoringProgrammes ..> DocumentReference 

MonitoringSite "1" -- "1..3" MonitoringPurpose 
Monitoring "0..n"-- "1" MonitoringSite 

classDef default fill:white,stroke:#000;
classDef forFixing fill:white,stroke:#f00;